#!OML:ASF F:\VICON\USERDATA\INSTALL\rory3\rory3.ASF
:FULLY-SPECIFIED
:DEGREES
2516
root -0.60639 17.5413 2.23492 10.63 -36.0188 11.2894
lowerback 7.05204 -7.09416 -0.89319
upperback 5.33438 -9.76047 8.82724
thorax 3.45452 -5.26228 10.1673
lowerneck -26.5712 6.01283 -5.18324
upperneck 28.0654 10.4008 0.992305
head 13.5904 4.0192 3.19313
rclavicle -3.97569e-014 -5.56597e-014
rhumerus 24.2126 23.9625 -37.8571
rradius 68.3335
rwrist -38.4435
rhand -4.43893 -12.8582
rfingers 7.12502
rthumb 21.3324 -41.7041
lclavicle -3.97569e-014 -5.56597e-014
lhumerus 72.8201 -43.9581 30.8162
lradius 44.7907
lwrist -29.6521
lhand -44.1767 44.7324
lfingers 7.12502
lthumb -16.9913 434.009
rfemur -43.7448 8.9541 -0.897389
rtibia 39.9951
rfoot -8.70372 5.0333
rtoes 6.6708
lfemur -17.1394 16.0135 -27.7395
ltibia 21.9543
lfoot -12.5045 25.0361
ltoes -17.0848
2517
root -0.604611 17.5417 2.23454 10.5287 -35.7655 11.3245
lowerback 7.08513 -6.94874 -0.916514
upperback 5.22577 -9.55607 8.87241
thorax 3.293 -5.15343 10.243
lowerneck -26.0878 6.72771 -4.95026
upperneck 27.1086 11.2643 0.927827
head 13.0754 4.48269 3.21669
rclavicle 8.74653e-014 -6.36111e-014
rhumerus 23.025 23.4372 -38.2735
rradius 68.5467
rwrist -35.1654
rhand -5.05947 -11.8714
rfingers 7.12502
rthumb 20.7363 -40.7835
lclavicle 8.74653e-014 -6.36111e-014
lhumerus 71.6711 -44.362 32.5689
lradius 44.7135
lwrist -28.1024
lhand -43.2077 41.4244
lfingers 7.12502
lthumb -16.0584 430.779
rfemur -43.5517 8.83785 -0.89098
rtibia 39.9937
rfoot -8.81973 4.88012
rtoes 6.65324
lfemur -17.0332 15.9409 -27.7217
ltibia 21.9093
lfoot -12.4333 24.949
ltoes -17.414
2518
root -0.602045 17.5413 2.23422 10.4438 -35.567 11.3897
lowerback 7.10077 -6.7382 -0.991382
upperback 5.10122 -9.26734 8.92573
thorax 3.11748 -5.00313 10.3549
lowerneck -25.7791 7.4311 -4.68046
upperneck 26.3152 12.1499 0.750479
head 12.6875 4.93226 3.20669
rclavicle 3.49861e-014 -1.01778e-013
rhumerus 21.7169 22.8463 -38.6565
rradius 68.8174
rwrist -31.6531
rhand -5.78476 -10.9087
rfingers 7.12502
rthumb 20.0393 -39.8954
lclavicle 3.49861e-014 -1.01778e-013
lhumerus 71.3967 -45.0969 33.0627
lradius 45.1469
lwrist -25.3793
lhand -42.6063 40.8225
lfingers 7.12502
lthumb -15.4792 430.223
rfemur -43.4228 8.72904 -0.907835
rtibia 40.014
rfoot -8.95105 4.76441
rtoes 6.24613
lfemur -16.9621 15.8652 -27.746
ltibia 21.8482
lfoot -12.3008 24.8809
ltoes -17.73
2519
root -0.598889 17.543 2.23569 10.379 -35.3833 11.4001
lowerback 7.10869 -6.5429 -1.02258
upperback 4.999 -8.99977 8.99089
thorax 2.96846 -4.8637 10.4522
lowerneck -25.6314 8.21534 -4.54804
upperneck 25.6483 13.1914 0.654477
head 12.369 5.44258 3.28307
rclavicle -2.38542e-014 4.77083e-015
rhumerus 20.4476 22.3152 -38.9654
rradius 69.1679
rwrist -27.9176
rhand -6.87059 -10.0697
rfingers 7.12502
rthumb 18.9953 -39.1621
lclavicle -2.38542e-014 4.77083e-015
lhumerus 70.2762 -45.6096 34.6278
lradius 45.4923
lwrist -23.5162
lhand -41.1089 36.3936
lfingers 7.12502
lthumb -14.0365 425.9
rfemur -43.2862 8.6181 -0.867899
rtibia 40.0549
rfoot -9.09697 4.64988
rtoes 5.93767
lfemur -16.8686 15.7805 -27.7195
ltibia 21.7889
lfoot -12.2524 24.7808
ltoes -17.8509
2520
root -0.599922 17.5462 2.23566 10.3446 -35.1678 11.3328
lowerback 7.06413 -6.36747 -0.978602
upperback 4.97653 -8.76166 9.00199
thorax 2.9167 -4.73868 10.4337
lowerneck -25.3179 8.92963 -4.35375
upperneck 24.6219 14.0848 0.505485
head 11.9011 5.91367 3.27458
rclavicle 3.49861e-014 1.43125e-014
rhumerus 19.1551 21.7446 -39.4231
rradius 69.5443
rwrist -24.0989
rhand -8.20753 -9.24551
rfingers 7.12502
rthumb 17.7091 -38.4591
lclavicle 3.49861e-014 1.43125e-014
lhumerus 69.0773 -46.0151 36.0984
lradius 45.9004
lwrist -22.1195
lhand -39.189 34.4257
lfingers 7.12502
lthumb -12.1859 424.051
rfemur -43.1192 8.5836 -0.775727
rtibia 40.0916
rfoot -9.24842 4.4782
rtoes 5.30212
lfemur -16.7619 15.7688 -27.6199
ltibia 21.7387
lfoot -12.2094 24.6181
ltoes -18.0052
2521
root -0.600575 17.5468 2.23321 10.3255 -34.8884 11.2837
lowerback 6.91868 -6.13574 -0.880075
upperback 5.05179 -8.4562 8.96554
thorax 2.99529 -4.58135 10.3114
lowerneck -25.221 9.52561 -4.132
upperneck 23.5391 14.7987 0.376542
head 11.4704 6.3101 3.2468
rclavicle -1.27222e-014 1.90833e-014
rhumerus 17.8535 20.8507 -39.9479
rradius 69.7534
rwrist -20.2218
rhand -9.56562 -8.23632
rfingers 7.12502
rthumb 16.4019 -37.5629
lclavicle -1.27222e-014 1.90833e-014
lhumerus 68.1993 -46.3598 37.4299
lradius 46.2716
lwrist -20.8921
lhand -37.3434 33.6327
lfingers 7.12502
lthumb -10.4059 423.355
rfemur -42.9631 8.5329 -0.727479
rtibia 40.1351
rfoot -9.38263 4.30627
rtoes 5.49249
lfemur -16.6909 15.8012 -27.5366
ltibia 21.7016
lfoot -12.1987 24.3258
ltoes -17.9931
2522
root -0.60088 17.5487 2.226 10.2602 -34.459 11.3012
lowerback 6.90075 -5.9478 -0.920916
upperback 5.05657 -8.20781 9.00682
thorax 2.97548 -4.45762 10.377
lowerneck -25.2107 10.0943 -3.98793
upperneck 22.6286 15.5185 0.23192
head 11.1259 6.6885 3.23726
rclavicle -1.68569e-013 9.06458e-014
rhumerus 16.6151 20.1749 -40.183
rradius 70.0238
rwrist -16.5235
rhand -11.3055 -7.25284
rfingers 7.12502
rthumb 14.7262 -36.7098
lclavicle -1.68569e-013 9.06458e-014
lhumerus 67.1816 -46.5727 38.882
lradius 46.6724
lwrist -19.5058
lhand -35.3009 32.4845
lfingers 7.12502
lthumb -8.43518 422.296
rfemur -42.7594 8.49355 -0.757674
rtibia 40.1657
rfoot -9.59881 4.01234
rtoes 5.89833
lfemur -16.6436 15.6729 -27.4662
ltibia 21.7036
lfoot -12.2165 23.9885
ltoes -17.6552
2523
root -0.601562 17.5508 2.22175 10.2946 -33.9628 11.2168
lowerback 6.83237 -5.82994 -0.900281
upperback 5.00456 -8.04948 9.10696
thorax 2.9411 -4.37748 10.4707
lowerneck -24.9717 10.723 -3.90119
upperneck 21.6282 16.3269 0.0491232
head 10.7108 7.11001 3.21372
rclavicle -3.49861e-014 1.59028e-014
rhumerus 15.4667 19.7208 -40.3372
rradius 70.2602
rwrist -12.5547
rhand -13.1461 -6.7583
rfingers 7.12502
rthumb 12.9524 -36.3363
lclavicle -3.49861e-014 1.59028e-014
lhumerus 65.8541 -46.7192 40.3836
lradius 47.1362
lwrist -18.4062
lhand -33.4538 31.7138
lfingers 7.12502
lthumb -6.65234 421.589
rfemur -42.5717 8.33784 -0.638798
rtibia 40.1959
rfoot -9.80017 3.68529
rtoes 5.29232
lfemur -16.6833 15.4826 -27.3223
ltibia 21.7462
lfoot -12.1226 23.7223
ltoes -17.6545
2524
root -0.604064 17.5536 2.22303 10.3933 -33.5281 11.0127
lowerback 6.67266 -5.71151 -0.723462
upperback 4.96374 -7.88611 9.17161
thorax 2.93908 -4.2879 10.4227
lowerneck -24.6575 11.2699 -3.89616
upperneck 20.557 16.9938 0.0177941
head 10.2454 7.48975 3.21723
rclavicle 1.22451e-013 -7.63333e-014
rhumerus 14.318 19.2957 -40.528
rradius 70.4041
rwrist -8.45027
rhand -14.7919 -6.54392
rfingers 7.12502
rthumb 11.3655 -36.2159
lclavicle 1.22451e-013 -7.63333e-014
lhumerus 64.3043 -47.0304 42.159
lradius 47.4541
lwrist -17.821
lhand -32.0129 31.4813
lfingers 7.12502
lthumb -5.26118 421.396
rfemur -42.3457 8.21429 -0.428096
rtibia 40.1976
rfoot -9.94899 3.47826
rtoes 5.47489
lfemur -16.7149 15.5072 -27.1061
ltibia 21.8082
lfoot -12.0393 23.3629
ltoes -18.0774
2525
root -0.604943 17.5543 2.22554 10.3747 -33.1045 10.8628
lowerback 6.66936 -5.64596 -0.620091
upperback 4.89178 -7.78882 9.26932
thorax 2.84678 -4.23361 10.4752
lowerneck -24.3089 11.7797 -3.94792
upperneck 19.4785 17.6502 -0.116065
head 9.78626 7.84929 3.18555
rclavicle -4.29375e-014 4.92986e-014
rhumerus 13.256 19.1594 -40.6113
rradius 70.5544
rwrist -4.85525
rhand -16.7195 -6.21687
rfingers 7.12502
rthumb 9.506 -35.9825
lclavicle -4.29375e-014 4.92986e-014
lhumerus 62.2726 -47.3442 44.4439
lradius 47.7723
lwrist -16.9808
lhand -30.6768 31.7965
lfingers 7.12502
lthumb -3.97099 421.739
rfemur -42.0367 8.08193 -0.256487
rtibia 40.1959
rfoot -10.1052 3.35211
rtoes 5.79187
lfemur -16.6291 15.347 -26.9004
ltibia 21.8735
lfoot -12.0346 23.1929
ltoes -18.7899
2526
root -0.607017 17.5576 2.22548 10.3685 -32.6025 10.6185
lowerback 6.76094 -5.52991 -0.512544
upperback 4.79483 -7.61851 9.42969
thorax 2.67089 -4.14225 10.6077
lowerneck -24.0358 12.276 -4.03354
upperneck 18.5693 18.3138 -0.262607
head 9.40553 8.19867 3.16592
rclavicle -7.95139e-015 -3.33958e-014
rhumerus 12.0862 19.1564 -40.6109
rradius 70.6236
rwrist -1.83528
rhand -19.3706 -5.42093
rfingers 7.12502
rthumb 6.94742 -35.2869
lclavicle -7.95139e-015 -3.33958e-014
lhumerus 60.3716 -47.6772 46.5456
lradius 48.2306
lwrist -15.8939
lhand -29.5537 32.2108
lfingers 7.12502
lthumb -2.88643 422.171
rfemur -41.6615 7.9016 0.0517191
rtibia 40.1887
rfoot -10.3101 3.18777
rtoes 5.54147
lfemur -16.5159 15.1578 -26.5612
ltibia 21.9538
lfoot -12.0684 22.9262
ltoes -19.1504
2527
root -0.609005 17.5616 2.22091 10.3811 -31.9471 10.5116
lowerback 6.65367 -5.38455 -0.450063
upperback 4.74092 -7.42143 9.51803
thorax 2.64002 -4.03965 10.659
lowerneck -23.8597 12.6367 -4.1345
upperneck 17.6056 18.7827 -0.370058
head 9.0262 8.46354 3.13527
rclavicle -1.90833e-014 -3.49861e-014
rhumerus 10.8395 18.9322 -40.707
rradius 70.6693
rwrist 0.910867
rhand -22.0529 -4.87209
rfingers 7.12502
rthumb 4.35772 -34.8073
lclavicle -1.90833e-014 -3.49861e-014
lhumerus 58.731 -47.9935 48.5352
lradius 48.5312
lwrist -15.168
lhand -28.664 31.9549
lfingers 7.12502
lthumb -2.02724 421.925
rfemur -41.3298 7.56024 0.235257
rtibia 40.1986
rfoot -10.4798 3.01967
rtoes 5.425
lfemur -16.541 15.0668 -26.3815
ltibia 22.0166
lfoot -11.9066 22.468
ltoes -19.3642
2528
root -0.609733 17.5616 2.21476 10.4154 -31.1668 10.409
lowerback 6.23706 -5.365 -0.0531536
upperback 4.87363 -7.39739 9.30503
thorax 2.91985 -4.01063 10.1349
lowerneck -23.5545 13.0104 -3.77561
upperneck 16.2467 19.1009 -0.587655
head 8.55268 8.69577 2.96046
rclavicle 1.43125e-014 1.33583e-013
rhumerus 9.73624 18.3525 -41.52
rradius 70.5897
rwrist 3.57766
rhand -24.4644 -4.65006
rfingers 7.12502
rthumb 2.02887 -34.6202
lclavicle 1.43125e-014 1.33583e-013
lhumerus 57.1525 -48.1948 50.051
lradius 48.8004
lwrist -14.4784
lhand -28.0316 31.6222
lfingers 7.12502
lthumb -1.41639 421.597
rfemur -40.9972 7.17676 0.410674
rtibia 40.1951
rfoot -10.6731 2.73782
rtoes 5.31611
lfemur -16.6248 14.8317 -26.1866
ltibia 22.1092
lfoot -11.7905 22.0232
ltoes -19.4963
2529
root -0.610267 17.5585 2.21415 10.3632 -30.6365 10.351
lowerback 5.99384 -5.24132 0.196876
upperback 4.96615 -7.23087 9.09859
thorax 3.0573 -3.91055 9.72734
lowerneck -23.3684 13.3373 -3.39583
upperneck 15.0025 19.3614 -0.792803
head 8.14744 8.88962 2.79613
rclavicle 1.11319e-014 0
rhumerus 8.60314 17.6747 -42.3091
rradius 70.4691
rwrist 6.23584
rhand -26.5725 -4.76187
rfingers 7.12502
rthumb -0.00719478 -34.7416
lclavicle 1.11319e-014 0
lhumerus 55.4185 -48.5043 51.5836
lradius 49.26
lwrist -13.3356
lhand -27.1107 31.4329
lfingers 7.12502
lthumb -0.527024 421.412
rfemur -40.7237 6.88695 0.55188
rtibia 40.1983
rfoot -10.7762 2.53087
rtoes 4.92474
lfemur -16.6032 14.5576 -26.0329
ltibia 22.2168
lfoot -11.838 21.8024
ltoes -19.3007
2530
root -0.610363 17.5561 2.21495 10.4357 -30.0844 10.0962
lowerback 5.90749 -5.04437 0.623988
upperback 4.92004 -6.93915 8.95981
thorax 2.93001 -3.73421 9.31728
lowerneck -23.125 13.5265 -3.09593
upperneck 13.8134 19.4507 -0.927772
head 7.74514 9.00006 2.6421
rclavicle 7.15625e-014 -1.46306e-013
rhumerus 7.16951 17.0059 -43.0167
rradius 70.505
rwrist 8.44522
rhand -28.6073 -4.6282
rfingers 7.12502
rthumb -1.97248 -34.5988
lclavicle 7.15625e-014 -1.46306e-013
lhumerus 53.5952 -49.0397 53.2508
lradius 49.7298
lwrist -11.9706
lhand -26.1502 31.3443
lfingers 7.12502
lthumb 0.400704 421.324
rfemur -40.4716 6.6399 0.874461
rtibia 40.1974
rfoot -10.8961 2.28894
rtoes 4.66188
lfemur -16.6113 14.1977 -25.6943
ltibia 22.3351
lfoot -11.9256 21.6241
ltoes -19.1352
